# xmcd CD database file
#
# Track frame offsets:
#	150
#	18074
#	34149
#	46633
#	64795
#	91599
#	109024
#	128683
#	147699
#	165332
#	182964
#	205046
#	221331
#	241680
#	266308
#	281960
#	300156
#	314135
#	330170
#
# Disc length: 4657 seconds
#
# Revision: 2
# Processed by: cddbd v1.5.2PL0 Copyright (c) Steve Scherf et al.
# Submitted via: CDex 1.51
#
DISCID=f7122f13
DTITLE=Various Artist - ZM-PP-11-CD-2
DYEAR=1900
DGENRE=Blues
TTITLE0=Bruno Marrs - Marry You
TTITLE1=Maroon 5 Ft Christina Aguilera - Moves Like Jagger
TTITLE2=Alexandra Stan - Mr Saxobeat
TTITLE3=Jennifer Lopez Ft Pitbull - On The Floor (solo female)
TTITLE4=Adele - One And Only
TTITLE5=Jessie J - Price Tag (solo female)
TTITLE6=Rihanna - S and M
TTITLE7=Adele - Set Fire To The Rain
TTITLE8=JLS Ft Dev - She Makes Me Wanna (duet)
TTITLE9=JLS Ft Dev - She Makes Me Wanna (male parts only)
TTITLE10=Adele - Someone Like You
TTITLE11=Example -  Stay Awake
TTITLE12=Ed Sheeran - The A Team
TTITLE13=Lady Gaga - The Edge Of Glory
TTITLE14=Bruno Mars - The lazy Song
TTITLE15=Enrique Iglesias Ft Ludacris - Tonight (i'm lovin' you) with rapper
TTITLE16=Alex gaudino Ft Kelly Rowland - What A Feeling
TTITLE17=One Direction - What makes You Beautiful
TTITLE18=Take That - When We Were Young
EXTD=
EXTT0=
EXTT1=
EXTT2=
EXTT3=
EXTT4=
EXTT5=
EXTT6=
EXTT7=
EXTT8=
EXTT9=
EXTT10=
EXTT11=
EXTT12=
EXTT13=
EXTT14=
EXTT15=
EXTT16=
EXTT17=
EXTT18=
PLAYORDER=
